<?xml version="1.0" encoding="iso-8859-1"?>
<!-- Generator: Adobe Illustrator 19.0.0, SVG Export Plug-In . SVG Version: 6.00 Build 0)  -->
<svg version="1.1" id="Capa_1" xmlns="http://www.w3.org/2000/svg" xmlns:xlink="http://www.w3.org/1999/xlink" x="0px" y="0px"
	 viewBox="0 0 512 512" style="enable-background:new 0 0 512 512;" xml:space="preserve">
<!-- <path style="fill:white;" d="M5,256c0,138.6,112.4,251,251,251V5C117.4,5,5,117.4,5,256z"/>
<path style="fill:white;" d="M256,507V379.6L151.4,484.2C184.2,499.3,219.9,507,256,507z"/> -->
<path style="fill:black;" d="M256,512C114.5,512,0,397.5,0,256S114.5,0,256,0c2.8,0,5,2.2,5,5v502C261,509.8,258.8,512,256,512z
	 M251,10.1C117.6,12.7,10,121.5,10,256s107.6,243.3,241,246V10.1z"/>
<path style="fill:skyblue;" d="M256,5v502c138.6,0,251-112.4,251-251S394.6,5,256,5z"/>
<path style="fill:skyblue;" d="M507,256c0-36.1-7.7-71.8-22.8-104.6L256,379.6V507C394.6,507,507,394.6,507,256z"/>
<path style="fill:skyblue;" d="M506.3,275.3l-231,231C398.5,496.9,496.9,398.5,506.3,275.3z"/>
 <path style="fill:#424242;" d="M256,512c-2.8,0-5-2.2-5-5V5c0-2.8,2.2-5,5-5c141.5,0,256,114.5,256,256S397.5,512,256,512z M261,10
	v492c133.4-2.7,241-111.5,241-246S394.4,12.7,261,10L261,10z"/>
<g>
</g>
<g>
</g>
<g>
</g>
<g>
</g>
<g>
</g>
<g>
</g>
<g>
</g>
<g>
</g>
<g>
</g>
<g>
</g>
<g>
</g>
<g>
</g>
<g>
</g>
<g>
</g>
<g>
</g>
</svg>
